<svg xmlns="http://www.w3.org/2000/svg" xmlns:xlink="http://www.w3.org/1999/xlink" width="256" height="256" viewBox="0 0 256 256">
  <defs>
    <clipPath id="clip-Rotated-missing-corners">
      <rect width="256" height="256"/>
    </clipPath>
  </defs>
  <g id="Rotated-missing-corners" clip-path="url(#clip-Rotated-missing-corners)">
    <g id="Group_5" data-name="Group 5" transform="translate(-21.905 -21.905)">
      <circle id="Ellipse_2" data-name="Ellipse 2" cx="21" cy="21" r="21" transform="translate(128.905 128.905)"/>
      <circle id="Ellipse_11" data-name="Ellipse 11" cx="20.51" cy="20.51" r="20.51" transform="translate(93.565 165.225)"/>
      <circle id="Ellipse_15" data-name="Ellipse 15" cx="20.51" cy="20.51" r="20.51" transform="translate(165.225 93.565)"/>
      <circle id="Ellipse_27" data-name="Ellipse 27" cx="20.51" cy="20.51" r="20.51" transform="translate(236.885 165.225)"/>
      <circle id="Ellipse_13" data-name="Ellipse 13" cx="20.51" cy="20.51" r="20.51" transform="translate(57.735 201.056)"/>
      <circle id="Ellipse_17" data-name="Ellipse 17" cx="20.51" cy="20.51" r="20.51" transform="translate(201.056 57.735)"/>
      <circle id="Ellipse_31" data-name="Ellipse 31" cx="20.51" cy="20.51" r="20.51" transform="translate(165.225 236.885)"/>
      <circle id="Ellipse_5" data-name="Ellipse 5" cx="20.51" cy="20.51" r="20.51" transform="translate(93.565 93.565)"/>
      <circle id="Ellipse_23" data-name="Ellipse 23" cx="20.51" cy="20.51" r="20.51" transform="translate(57.735 129.395)"/>
      <circle id="Ellipse_25" data-name="Ellipse 25" cx="20.51" cy="20.51" r="20.51" transform="translate(21.905 165.225)"/>
      <circle id="Ellipse_19" data-name="Ellipse 19" cx="20.51" cy="20.51" r="20.51" transform="translate(129.395 57.735)"/>
      <circle id="Ellipse_29" data-name="Ellipse 29" cx="20.51" cy="20.51" r="20.51" transform="translate(201.056 129.395)"/>
      <circle id="Ellipse_33" data-name="Ellipse 33" cx="20.51" cy="20.51" r="20.51" transform="translate(93.565 236.885)"/>
      <circle id="Ellipse_21" data-name="Ellipse 21" cx="20.51" cy="20.51" r="20.51" transform="translate(165.225 21.905)"/>
      <circle id="Ellipse_26" data-name="Ellipse 26" cx="20.51" cy="20.51" r="20.51" transform="translate(236.885 93.565)"/>
      <circle id="Ellipse_30" data-name="Ellipse 30" cx="20.51" cy="20.51" r="20.51" transform="translate(129.395 201.056)"/>
      <circle id="Ellipse_6" data-name="Ellipse 6" cx="20.51" cy="20.51" r="20.51" transform="translate(57.735 57.735)"/>
      <circle id="Ellipse_22" data-name="Ellipse 22" cx="20.51" cy="20.51" r="20.51" transform="translate(21.905 93.565)"/>
      <circle id="Ellipse_18" data-name="Ellipse 18" cx="20.51" cy="20.51" r="20.51" transform="translate(93.565 21.905)"/>
      <circle id="Ellipse_3" data-name="Ellipse 3" cx="20.51" cy="20.51" r="20.51" transform="translate(165.225 165.225)"/>
      <circle id="Ellipse_4" data-name="Ellipse 4" cx="20.51" cy="20.51" r="20.51" transform="translate(201.056 201.056)"/>
      <circle id="Ellipse_35" data-name="Ellipse 35" cx="21" cy="21" r="21" transform="translate(128.905 128.905)"/>
    </g>
  </g>
</svg>
